<?xml version="1.0" encoding="UTF-8"?>
<svg width="579px" height="163px" viewBox="0 0 579 163" version="1.1" xmlns="http://www.w3.org/2000/svg" xmlns:xlink="http://www.w3.org/1999/xlink">
    <!-- Generator: Sketch 50 (54983) - http://www.bohemiancoding.com/sketch -->
    <title>Tap the Pairs</title>
    <desc>Created with Sketch.</desc>
    <defs></defs>
    <g id="Page-1" stroke="none" stroke-width="1" fill="none" fill-rule="evenodd">
        <path d="M40.706,6.844 L0.302,6.844 L0.302,0.292 L40.706,0.292 L40.706,6.844 Z M40.706,17.764 L29.24,17.764 L29.24,163 L22.688,163 L22.688,11.212 L40.706,11.212 L40.706,17.764 Z M18.32,163 L11.768,163 L11.768,17.764 L0.302,17.764 L0.302,11.212 L18.32,11.212 L18.32,163 Z M84.75,115.68 L62.91,115.68 L62.91,22.132 C62.91,19.0986515 63.9716561,16.5203439 66.095,14.397 C68.2183439,12.273656 70.7966515,11.212 73.83,11.212 C76.8633485,11.212 79.4416561,12.273656 81.565,14.397 C83.6883439,16.5203439 84.75,19.0986515 84.75,22.132 L84.75,115.68 Z M95.67,163 L89.118,163 L89.118,22.132 C89.118,17.8853121 87.6316815,14.2756815 84.659,11.303 C81.6863185,8.33031847 78.0766879,6.844 73.83,6.844 C69.5833121,6.844 65.9736815,8.33031847 63.001,11.303 C60.0283185,14.2756815 58.542,17.8853121 58.542,22.132 L58.542,115.68 L47.258,115.68 L47.258,109.128 L51.808,109.128 L51.808,22.132 C51.808,16.1866369 53.9616451,11.0603549 58.269,6.753 C62.5763549,2.44564513 67.763303,0.292 73.83,0.292 C79.896697,0.292 85.0533121,2.4153121 89.3,6.662 C93.5466879,10.9086879 95.67,16.065303 95.67,22.132 L95.67,163 Z M84.75,163 L78.198,163 L78.198,126.782 L69.462,126.782 L69.462,163 L62.91,163 L62.91,120.23 L84.75,120.23 L84.75,163 Z M58.542,163 L51.808,163 L51.808,126.782 L47.258,126.782 L47.258,120.23 L58.542,120.23 L58.542,163 Z M78.198,109.128 L78.198,22.132 C78.198,19.2199854 76.7420146,17.764 73.83,17.764 C70.9179854,17.764 69.462,19.2199854 69.462,22.132 L69.462,109.128 L78.198,109.128 Z M134.982,104.942 C134.982,107.975348 133.920344,110.523323 131.797,112.586 C129.673656,114.648677 127.095348,115.68 124.062,115.68 L113.142,115.68 L113.142,11.212 L124.062,11.212 C127.095348,11.212 129.673656,12.273656 131.797,14.397 C133.920344,16.5203439 134.982,19.0986515 134.982,22.132 L134.982,104.942 Z M146.084,104.942 C146.084,110.887363 143.900022,116.013645 139.532,120.321 C135.163978,124.628355 130.007363,126.782 124.062,126.782 L119.694,126.782 L119.694,163 L113.142,163 L113.142,120.23 L124.062,120.23 C128.308688,120.23 131.918318,118.743682 134.891,115.771 C137.863682,112.798318 139.35,109.188688 139.35,104.942 L139.35,22.132 C139.35,17.8853121 137.863682,14.2756815 134.891,11.303 C131.918318,8.33031847 128.308688,6.844 124.062,6.844 L102.222,6.844 L102.222,0.292 L124.062,0.292 C130.128697,0.292 135.315645,2.4153121 139.623,6.662 C143.930355,10.9086879 146.084,16.065303 146.084,22.132 L146.084,104.942 Z M108.774,163 L102.222,163 L102.222,11.212 L108.774,11.212 L108.774,163 Z M128.43,104.942 L128.43,22.132 C128.43,19.2199854 126.974015,17.764 124.062,17.764 L119.694,17.764 L119.694,109.128 L124.062,109.128 C126.974015,109.128 128.43,107.732681 128.43,104.942 Z M220.34,6.844 L179.936,6.844 L179.936,0.292 L220.34,0.292 L220.34,6.844 Z M220.34,17.764 L208.874,17.764 L208.874,163 L202.322,163 L202.322,11.212 L220.34,11.212 L220.34,17.764 Z M197.954,163 L191.402,163 L191.402,17.764 L179.936,17.764 L179.936,11.212 L197.954,11.212 L197.954,163 Z M259.652,115.862 L237.812,115.862 L237.812,0.292 L244.546,0.292 L244.546,109.128 L253.1,109.128 L253.1,0.292 L259.652,0.292 L259.652,115.862 Z M270.754,163 L264.202,163 L264.202,0.292 L270.754,0.292 L270.754,163 Z M233.444,115.862 L226.892,115.862 L226.892,0.292 L233.444,0.292 L233.444,115.862 Z M259.652,163 L253.1,163 L253.1,126.782 L244.546,126.782 L244.546,163 L237.812,163 L237.812,120.23 L259.652,120.23 L259.652,163 Z M233.444,163 L226.892,163 L226.892,120.23 L233.444,120.23 L233.444,163 Z M310.066,32.142 L303.514,32.142 L303.514,22.132 C303.514,19.2199854 302.058015,17.764 299.146,17.764 C296.233985,17.764 294.778,19.2199854 294.778,22.132 L294.778,37.056 C294.778,39.9680146 296.173319,41.424 298.964,41.424 L307.882,41.424 L307.882,47.976 L299.146,47.976 C296.112652,47.976 293.534344,46.9143439 291.411,44.791 C289.287656,42.6676561 288.226,40.0893485 288.226,37.056 L288.226,22.132 C288.226,19.0986515 289.317989,16.5203439 291.502,14.397 C293.686011,12.273656 296.233985,11.212 299.146,11.212 C302.179349,11.212 304.757656,12.273656 306.881,14.397 C309.004344,16.5203439 310.066,19.0986515 310.066,22.132 L310.066,32.142 Z M321.168,141.16 C321.168,147.226697 319.014355,152.383312 314.707,156.63 C310.399645,160.876688 305.212697,163 299.146,163 C293.200637,163 288.074355,160.846355 283.767,156.539 C279.459645,152.231645 277.306,147.105363 277.306,141.16 L277.306,63.264 C277.306,58.4106424 278.761985,54.0426861 281.674,50.16 C278.761985,46.2773139 277.306,41.9093576 277.306,37.056 L277.306,22.132 C277.306,16.065303 279.459645,10.9086879 283.767,6.662 C288.074355,2.4153121 293.200637,0.292 299.146,0.292 C305.212697,0.292 310.399645,2.4153121 314.707,6.662 C319.014355,10.9086879 321.168,16.065303 321.168,22.132 L321.168,32.142 L314.616,32.142 L314.616,22.132 C314.616,17.8853121 313.099349,14.2756815 310.066,11.303 C307.032652,8.33031847 303.392688,6.844 299.146,6.844 C295.020646,6.844 291.441349,8.33031847 288.408,11.303 C285.374652,14.2756815 283.858,17.8853121 283.858,22.132 L283.858,37.056 C283.858,42.7586952 286.345308,47.1266515 291.32,50.16 C286.345308,53.1933485 283.858,57.5613048 283.858,63.264 L283.858,141.16 C283.858,145.285354 285.374652,148.864652 288.408,151.898 C291.441349,154.931349 295.020646,156.448 299.146,156.448 C303.392688,156.448 307.032652,154.961682 310.066,151.989 C313.099349,149.016318 314.616,145.406688 314.616,141.16 L314.616,118.046 L321.168,118.046 L321.168,141.16 Z M310.066,141.16 C310.066,144.193349 309.004344,146.771656 306.881,148.895 C304.757656,151.018344 302.179349,152.08 299.146,152.08 C296.112652,152.08 293.534344,151.018344 291.411,148.895 C289.287656,146.771656 288.226,144.193349 288.226,141.16 L288.226,63.264 C288.226,60.2306515 289.317989,57.6523439 291.502,55.529 C293.686011,53.4056561 296.233985,52.344 299.146,52.344 L307.882,52.344 L307.882,58.896 L299.146,58.896 C296.233985,58.896 294.778,60.3519854 294.778,63.264 L294.778,141.16 C294.778,144.072015 296.233985,145.528 299.146,145.528 C302.058015,145.528 303.514,144.072015 303.514,141.16 L303.514,118.046 L310.066,118.046 L310.066,141.16 Z M387.78,104.942 C387.78,107.975348 386.718344,110.523323 384.595,112.586 C382.471656,114.648677 379.893349,115.68 376.86,115.68 L365.94,115.68 L365.94,11.212 L376.86,11.212 C379.893349,11.212 382.471656,12.273656 384.595,14.397 C386.718344,16.5203439 387.78,19.0986515 387.78,22.132 L387.78,104.942 Z M398.882,104.942 C398.882,110.887363 396.698022,116.013645 392.33,120.321 C387.961978,124.628355 382.805363,126.782 376.86,126.782 L372.492,126.782 L372.492,163 L365.94,163 L365.94,120.23 L376.86,120.23 C381.106688,120.23 384.716318,118.743682 387.689,115.771 C390.661682,112.798318 392.148,109.188688 392.148,104.942 L392.148,22.132 C392.148,17.8853121 390.661682,14.2756815 387.689,11.303 C384.716318,8.33031847 381.106688,6.844 376.86,6.844 L355.02,6.844 L355.02,0.292 L376.86,0.292 C382.926697,0.292 388.113645,2.4153121 392.421,6.662 C396.728355,10.9086879 398.882,16.065303 398.882,22.132 L398.882,104.942 Z M361.572,163 L355.02,163 L355.02,11.212 L361.572,11.212 L361.572,163 Z M381.228,104.942 L381.228,22.132 C381.228,19.2199854 379.772015,17.764 376.86,17.764 L372.492,17.764 L372.492,109.128 L376.86,109.128 C379.772015,109.128 381.228,107.732681 381.228,104.942 Z M442.926,115.68 L421.086,115.68 L421.086,22.132 C421.086,19.0986515 422.147656,16.5203439 424.271,14.397 C426.394344,12.273656 428.972651,11.212 432.006,11.212 C435.039348,11.212 437.617656,12.273656 439.741,14.397 C441.864344,16.5203439 442.926,19.0986515 442.926,22.132 L442.926,115.68 Z M453.846,163 L447.294,163 L447.294,22.132 C447.294,17.8853121 445.807682,14.2756815 442.835,11.303 C439.862318,8.33031847 436.252688,6.844 432.006,6.844 C427.759312,6.844 424.149682,8.33031847 421.177,11.303 C418.204318,14.2756815 416.718,17.8853121 416.718,22.132 L416.718,115.68 L405.434,115.68 L405.434,109.128 L409.984,109.128 L409.984,22.132 C409.984,16.1866369 412.137645,11.0603549 416.445,6.753 C420.752355,2.44564513 425.939303,0.292 432.006,0.292 C438.072697,0.292 443.229312,2.4153121 447.476,6.662 C451.722688,10.9086879 453.846,16.065303 453.846,22.132 L453.846,163 Z M442.926,163 L436.374,163 L436.374,126.782 L427.638,126.782 L427.638,163 L421.086,163 L421.086,120.23 L442.926,120.23 L442.926,163 Z M416.718,163 L409.984,163 L409.984,126.782 L405.434,126.782 L405.434,120.23 L416.718,120.23 L416.718,163 Z M436.374,109.128 L436.374,22.132 C436.374,19.2199854 434.918015,17.764 432.006,17.764 C429.093985,17.764 427.638,19.2199854 427.638,22.132 L427.638,109.128 L436.374,109.128 Z M478.052,163 L471.5,163 L471.5,0.292 L478.052,0.292 L478.052,163 Z M466.95,163 L460.398,163 L460.398,0.292 L466.95,0.292 L466.95,163 Z M517.364,104.942 C517.364,107.975348 516.302344,110.523323 514.179,112.586 C512.055656,114.648677 509.477349,115.68 506.444,115.68 L495.524,115.68 L495.524,11.212 L506.444,11.212 C509.477349,11.212 512.055656,12.273656 514.179,14.397 C516.302344,16.5203439 517.364,19.0986515 517.364,22.132 L517.364,104.942 Z M528.284,163 L521.732,163 L521.732,131.15 C521.732,125.447305 519.244692,121.079348 514.27,118.046 C519.244692,114.891318 521.732,110.523361 521.732,104.942 L521.732,22.132 C521.732,17.8853121 520.245682,14.2756815 517.273,11.303 C514.300318,8.33031847 510.690688,6.844 506.444,6.844 L484.604,6.844 L484.604,0.292 L506.444,0.292 C512.510697,0.292 517.667312,2.4153121 521.914,6.662 C526.160688,10.9086879 528.284,16.065303 528.284,22.132 L528.284,104.942 C528.284,110.038025 526.828015,114.405982 523.916,118.046 C526.828015,121.686018 528.284,126.053975 528.284,131.15 L528.284,163 Z M491.156,163 L484.604,163 L484.604,11.212 L491.156,11.212 L491.156,163 Z M517.364,163 L510.812,163 L510.812,131.15 C510.812,128.237985 509.356015,126.782 506.444,126.782 L502.076,126.782 L502.076,163 L495.524,163 L495.524,120.23 L506.444,120.23 C509.477349,120.23 512.055656,121.291656 514.179,123.415 C516.302344,125.538344 517.364,128.116651 517.364,131.15 L517.364,163 Z M510.812,104.942 L510.812,22.132 C510.812,19.2199854 509.356015,17.764 506.444,17.764 L502.076,17.764 L502.076,109.128 L506.444,109.128 C509.356015,109.128 510.812,107.732681 510.812,104.942 Z M578.698,50.16 L571.964,50.16 L571.964,22.132 C571.964,17.8853121 570.477682,14.2756815 567.505,11.303 C564.532318,8.33031847 560.922688,6.844 556.676,6.844 C552.429312,6.844 548.819682,8.33031847 545.847,11.303 C542.874318,14.2756815 541.388,17.8853121 541.388,22.132 L541.388,104.942 C541.388,109.067354 542.904651,112.646651 545.938,115.68 C548.971349,118.713348 552.550646,120.23 556.676,120.23 C559.709349,120.23 562.287656,121.291656 564.411,123.415 C566.534344,125.538344 567.596,128.116651 567.596,131.15 L567.596,141.16 C567.596,144.193349 566.534344,146.771656 564.411,148.895 C562.287656,151.018344 559.709349,152.08 556.676,152.08 C553.763985,152.08 551.216011,151.018344 549.032,148.895 C546.847989,146.771656 545.756,144.193349 545.756,141.16 L545.756,131.15 L552.308,131.15 L552.308,141.16 C552.308,142.252005 552.762995,143.252995 553.673,144.163 C554.583005,145.073005 555.583995,145.528 556.676,145.528 C559.588015,145.528 561.044,144.072015 561.044,141.16 L561.044,131.15 C561.044,128.237985 559.588015,126.782 556.676,126.782 C550.609303,126.782 545.452688,124.628355 541.206,120.321 C536.959312,116.013645 534.836,110.887363 534.836,104.942 L534.836,22.132 C534.836,16.065303 536.989645,10.9086879 541.297,6.662 C545.604355,2.4153121 550.730637,0.292 556.676,0.292 C562.742697,0.292 567.929645,2.4153121 572.237,6.662 C576.544355,10.9086879 578.698,16.065303 578.698,22.132 L578.698,50.16 Z M578.698,141.16 C578.698,147.226697 576.544355,152.383312 572.237,156.63 C567.929645,160.876688 562.742697,163 556.676,163 C550.609303,163 545.452688,160.846355 541.206,156.539 C536.959312,152.231645 534.836,147.105363 534.836,141.16 L534.836,131.15 L541.388,131.15 L541.388,141.16 C541.388,145.285354 542.904651,148.864652 545.938,151.898 C548.971349,154.931349 552.550646,156.448 556.676,156.448 C560.922688,156.448 564.532318,154.961682 567.505,151.989 C570.477682,149.016318 571.964,145.406688 571.964,141.16 L571.964,131.15 C571.964,126.903312 570.477682,123.263349 567.505,120.23 C564.532318,117.196652 560.922688,115.68 556.676,115.68 C553.763985,115.68 551.216011,114.618344 549.032,112.495 C546.847989,110.371656 545.756,107.854015 545.756,104.942 L545.756,22.132 C545.756,19.0986515 546.817656,16.5203439 548.941,14.397 C551.064344,12.273656 553.642652,11.212 556.676,11.212 C559.709349,11.212 562.287656,12.273656 564.411,14.397 C566.534344,16.5203439 567.596,19.0986515 567.596,22.132 L567.596,50.16 L561.044,50.16 L561.044,22.132 C561.044,19.2199854 559.588015,17.764 556.676,17.764 C553.763985,17.764 552.308,19.2199854 552.308,22.132 L552.308,104.942 C552.308,107.732681 553.763985,109.128 556.676,109.128 C562.621363,109.128 567.777978,111.311978 572.146,115.68 C576.514022,120.048022 578.698,125.204637 578.698,131.15 L578.698,141.16 Z" id="Tap-the-Pairs" fill="#495057"></path>
    </g>
</svg>